<?xml version="1.0" standalone="no"?>
<!DOCTYPE svg PUBLIC "-//W3C//DTD SVG 20010904//EN"
 "http://www.w3.org/TR/2001/REC-SVG-20010904/DTD/svg10.dtd">
<svg version="1.0" xmlns="http://www.w3.org/2000/svg"
 width="360.000000pt" height="360.000000pt" viewBox="0 0 360.000000 360.000000"
 preserveAspectRatio="xMidYMid meet">

<g transform="translate(0.000000,360.000000) scale(0.100000,-0.100000)"
fill="#FFF" stroke="none">
<path d="M478 3585 c-221 -54 -411 -245 -463 -468 -22 -95 -22 -2541 0 -2636
43 -180 174 -341 343 -421 124 -59 128 -60 815 -60 l627 0 0 680 0 680 -220 0
-220 0 0 300 0 300 219 0 219 0 5 188 c5 208 19 276 82 407 68 142 195 275
323 339 113 57 178 66 479 66 l273 0 0 -300 0 -300 -254 0 c-245 0 -254 -1
-281 -22 -52 -41 -65 -88 -65 -240 l0 -138 300 0 300 0 0 -300 0 -300 -300 0
-300 0 0 -680 0 -680 348 0 c380 0 418 5 534 60 169 80 300 242 343 423 22 93
22 2541 0 2634 -53 227 -241 415 -468 468 -90 21 -2552 21 -2639 0z"/>
</g>
</svg>
