<?xml version="1.0" standalone="no"?>
<!DOCTYPE svg PUBLIC "-//W3C//DTD SVG 20010904//EN"
 "http://www.w3.org/TR/2001/REC-SVG-20010904/DTD/svg10.dtd">
<svg version="1.0" xmlns="http://www.w3.org/2000/svg"
 width="1000.000000pt" height="1800.000000pt" viewBox="0 0 640.000000 640.000000"
 preserveAspectRatio="xMidYMid meet">

<g transform="translate(0.000000,640.000000) scale(0.100000,-0.100000)"
fill="#fff" stroke="none">
<path d="M1985 4912 c-11 -15 -137 -162 -280 -327 -326 -376 -574 -661 -923
-1064 -154 -178 -271 -320 -268 -328 5 -12 61 -77 496 -577 96 -111 361 -416
589 -679 l414 -477 504 0 c465 0 528 3 493 25 -9 5 -162 181 -1050 1205 -227
261 -419 483 -427 492 -14 16 -8 26 78 125 51 60 148 171 215 248 214 247 744
858 798 920 29 33 130 149 224 257 95 109 172 200 172 203 0 3 -228 5 -507 5
l-508 -1 -20 -27z"/>
<path d="M3225 4683 c-121 -141 -297 -344 -390 -452 -94 -108 -334 -384 -533
-613 l-363 -418 198 -227 c108 -126 253 -293 322 -373 269 -309 468 -538 509
-585 23 -28 140 -163 260 -302 l217 -251 509 -1 509 -1 -20 23 c-11 12 -152
175 -314 362 -162 187 -414 477 -559 645 -467 539 -585 675 -599 693 -16 21
-36 -4 309 392 139 160 274 315 300 345 26 30 186 215 355 410 170 195 349
402 398 460 50 58 100 115 111 128 l19 22 -509 -1 -509 -1 -220 -255z"/>
<path d="M4740 4772 c-138 -160 -321 -371 -1039 -1197 -176 -203 -321 -372
-321 -375 0 -3 248 -291 551 -640 303 -349 642 -740 752 -867 l201 -233 504 0
c292 0 502 4 500 9 -1 5 -55 69 -119 142 -64 74 -358 413 -654 754 -296 341
-579 668 -631 727 l-93 107 132 153 c73 84 356 410 628 723 272 314 537 619
589 679 52 60 110 126 128 148 l34 38 -509 0 -508 0 -145 -168z"/>
</g>
</svg>
